<svg xmlns="http://www.w3.org/2000/svg" width="24" height="24" viewBox="0 0 24 24"><path d="M5.118 11.39V5.5s0-.648 6.882-.648c6.769 0 6.88.627 6.883.646v3.597a8.805 8.805 0 0 0 2.337-1.124A1.79 1.79 0 0 0 22 6.486V4.138C21.046 1.869 13.516 2 12 2c-1.515 0-9.045-.132-10 2.137V14a8.87 8.87 0 0 0 2.337-1.124c.486-.326.78-.885.78-1.486M2 19.859c.956 2.27 8.485 2.14 10 2.14 1.515 0 9.045.13 10-2.14V10a8.829 8.829 0 0 0-2.337 1.124 1.788 1.788 0 0 0-.781 1.485V18.5s0 .646-6.882.646-6.882-.646-6.882-.646v-3.597a8.79 8.79 0 0 0-2.336 1.126A1.786 1.786 0 0 0 2 17.512v2.347z" fill="#EE7800" fill-rule="evenodd"/></svg>